{
	"asset":{
		"generator":"Khronos glTF Blender I/O v4.1.62",
		"version":"2.0"
	},
	"extensionsUsed":[
		"KHR_materials_specular"
	],
	"scene":0,
	"scenes":[
		{
			"name":"Scene",
			"nodes":[
				37
			]
		}
	],
	"nodes":[
		{
			"name":"leg_front_left_toe",
			"rotation":[
				-0.37887412309646606,
				-0.6356982588768005,
				-0.6356982588768005,
				0.2196129709482193
			],
			"scale":[
				1.0000001192092896,
				1,
				1.0000001192092896
			],
			"translation":[
				7.152557373046875e-07,
				5.413914680480957,
				-1.1920928955078125e-06
			]
		},
		{
			"children":[
				0
			],
			"name":"leg_front_left_ankle",
			"rotation":[
				0.2860623300075531,
				0.8821059465408325,
				0.3729623854160309,
				0.030928058549761772
			],
			"translation":[
				-7.152557373046875e-07,
				7.60417366027832,
				0
			]
		},
		{
			"children":[
				1
			],
			"name":"leg_front_left_bot0",
			"rotation":[
				0.19675558805465698,
				-0.07179027795791626,
				-0.11001241952180862,
				0.9716124534606934
			],
			"scale":[
				1.0000001192092896,
				1,
				1
			],
			"translation":[
				1.1920928955078125e-07,
				8.318778991699219,
				-1.1920928955078125e-07
			]
		},
		{
			"children":[
				2
			],
			"name":"leg_front_left_top1",
			"rotation":[
				-0.24538426101207733,
				-0.6933836340904236,
				-0.5316532850265503,
				0.4199410378932953
			],
			"scale":[
				1,
				0.9999998807907104,
				0.9999997615814209
			],
			"translation":[
				-2.089887857437134e-06,
				5.230696678161621,
				-5.140900611877441e-07
			]
		},
		{
			"children":[
				3
			],
			"name":"leg_front_left_top0",
			"rotation":[
				0.4114764928817749,
				0.42995572090148926,
				0.6674966216087341,
				0.44751930236816406
			],
			"scale":[
				1,
				0.9999998807907104,
				1
			],
			"translation":[
				-1.845787763595581,
				7.942934513092041,
				9.017549514770508
			]
		},
		{
			"name":"head0",
			"rotation":[
				0.8366397619247437,
				-0.09488531947135925,
				-0.26382219791412354,
				0.4705619513988495
			],
			"scale":[
				1,
				1.0000001192092896,
				1
			],
			"translation":[
				8.344650268554688e-07,
				7.488928318023682,
				2.3208558559417725e-06
			]
		},
		{
			"children":[
				5
			],
			"name":"neck1",
			"rotation":[
				-0.20131978392601013,
				0.036603860557079315,
				-0.02966933324933052,
				0.9783916473388672
			],
			"scale":[
				0.9999999403953552,
				1.0000001192092896,
				0.9999998807907104
			],
			"translation":[
				-2.7120113372802734e-06,
				7.371092796325684,
				-1.0482966899871826e-05
			]
		},
		{
			"children":[
				6
			],
			"name":"neck0",
			"rotation":[
				-0.4656899869441986,
				0.1007193773984909,
				0.18887849152088165,
				0.8586695194244385
			],
			"scale":[
				0.9999999403953552,
				0.9999999403953552,
				1.0000001192092896
			],
			"translation":[
				6.258487701416016e-07,
				10.955587387084961,
				1.430511474609375e-06
			]
		},
		{
			"name":"leg_front_right_toe",
			"rotation":[
				-0.4317042827606201,
				-0.18360096216201782,
				-0.18360136449337006,
				0.8638360500335693
			],
			"scale":[
				1,
				1.0000001192092896,
				1
			],
			"translation":[
				-4.76837158203125e-07,
				4.791335105895996,
				-1.1920928955078125e-06
			]
		},
		{
			"children":[
				8
			],
			"name":"leg_front_right_ankle",
			"rotation":[
				-0.2004627138376236,
				0.691412091255188,
				0.1738051474094391,
				0.6719790101051331
			],
			"translation":[
				-1.1920928955078125e-06,
				5.755306243896484,
				0
			]
		},
		{
			"children":[
				9
			],
			"name":"leg_front_right_bot0",
			"rotation":[
				-0.10730700939893723,
				0.3729870617389679,
				0.09326210618019104,
				0.9168795347213745
			],
			"scale":[
				1,
				0.9999998211860657,
				0.9999998211860657
			],
			"translation":[
				-8.344650268554688e-07,
				6.358343124389648,
				-2.384185791015625e-07
			]
		},
		{
			"children":[
				10
			],
			"name":"leg_front_right_top1",
			"rotation":[
				0.003009616397321224,
				0.03638548031449318,
				-0.00872199609875679,
				0.9992952346801758
			],
			"scale":[
				1,
				0.9999999403953552,
				0.9999998807907104
			],
			"translation":[
				-3.5762786865234375e-07,
				7.1920485496521,
				-5.960464477539062e-07
			]
		},
		{
			"children":[
				11
			],
			"name":"leg_front_right_top0",
			"rotation":[
				0.5224465727806091,
				-0.41387176513671875,
				-0.6956599354743958,
				0.2679869532585144
			],
			"scale":[
				0.9999998807907104,
				0.9999999403953552,
				1
			],
			"translation":[
				4.054783344268799,
				4.633723258972168,
				11.920293807983398
			]
		},
		{
			"children":[
				4,
				7,
				12
			],
			"name":"body_top1",
			"rotation":[
				0.37940332293510437,
				0.03162677586078644,
				0.028903935104608536,
				0.9242388010025024
			],
			"scale":[
				1,
				0.9999999403953552,
				0.9999999403953552
			],
			"translation":[
				3.725290298461914e-08,
				5.904542922973633,
				-1.6763806343078613e-06
			]
		},
		{
			"children":[
				13
			],
			"name":"body_top0",
			"rotation":[
				-0.18808969855308533,
				-0.037430539727211,
				-0.14410102367401123,
				0.9708017706871033
			],
			"scale":[
				0.9999999403953552,
				0.9999998807907104,
				0.9999998807907104
			],
			"translation":[
				-2.1445822715759277,
				12.19556999206543,
				6.57133150100708
			]
		},
		{
			"name":"tail6",
			"rotation":[
				-0.5636839866638184,
				0.10931135714054108,
				0.025865938514471054,
				0.8183168172836304
			],
			"scale":[
				0.9999998211860657,
				0.9999998211860657,
				0.9999998807907104
			],
			"translation":[
				-9.5367431640625e-07,
				5.350500106811523,
				-5.960464477539062e-07
			]
		},
		{
			"children":[
				15
			],
			"name":"tail5",
			"rotation":[
				-0.7169004678726196,
				-0.017485126852989197,
				0.3534749448299408,
				0.6006692051887512
			],
			"scale":[
				1,
				0.9999999403953552,
				0.9999999403953552
			],
			"translation":[
				1.1324882507324219e-06,
				12.032732009887695,
				-5.4836273193359375e-06
			]
		},
		{
			"children":[
				16
			],
			"name":"tail4",
			"rotation":[
				-0.24867713451385498,
				-0.08263333886861801,
				-0.0646967664361,
				0.9628841280937195
			],
			"scale":[
				0.9999999403953552,
				0.9999998807907104,
				0.9999999403953552
			],
			"translation":[
				-2.980232238769531e-07,
				5.21456241607666,
				7.897615432739258e-07
			]
		},
		{
			"children":[
				17
			],
			"name":"tail3",
			"rotation":[
				0.28433385491371155,
				0.029882129281759262,
				-0.011629198677837849,
				0.9581889510154724
			],
			"scale":[
				0.9999999403953552,
				0.9999998211860657,
				0.9999999403953552
			],
			"translation":[
				4.76837158203125e-07,
				5.2357869148254395,
				-6.921589374542236e-06
			]
		},
		{
			"children":[
				18
			],
			"name":"tail2",
			"rotation":[
				0.217929407954216,
				-0.0060395109467208385,
				-0.08710327744483948,
				0.9720510840415955
			],
			"scale":[
				1,
				0.9999998807907104,
				1
			],
			"translation":[
				0,
				5.943602561950684,
				2.1241139620542526e-06
			]
		},
		{
			"children":[
				19
			],
			"name":"tail1",
			"rotation":[
				0.42998313903808594,
				-0.0070791528560221195,
				-0.13579848408699036,
				0.8925374746322632
			],
			"scale":[
				1,
				1.0000001192092896,
				0.9999999403953552
			],
			"translation":[
				5.960464477539062e-07,
				9.420127868652344,
				-3.725290298461914e-09
			]
		},
		{
			"children":[
				20
			],
			"name":"tail0",
			"rotation":[
				0.11716833710670471,
				-0.08638861775398254,
				0.2227729707956314,
				0.9639402627944946
			],
			"scale":[
				1,
				0.9999997615814209,
				0.9999998807907104
			],
			"translation":[
				-8.940696716308594e-08,
				11.793042182922363,
				1.043081283569336e-06
			]
		},
		{
			"children":[
				21
			],
			"name":"pelvis",
			"rotation":[
				0.5971469283103943,
				-0.037837859243154526,
				0.26596957445144653,
				0.7558069229125977
			],
			"scale":[
				0.9999998807907104,
				1,
				0.9999999403953552
			],
			"translation":[
				-4.016047477722168,
				4.802725315093994,
				-4.103936672210693
			]
		},
		{
			"name":"leg_hind_left_toe",
			"rotation":[
				-0.29763495922088623,
				-0.061077047139406204,
				-0.061077047139406204,
				0.9507642388343811
			],
			"scale":[
				1,
				0.9999999403953552,
				1
			],
			"translation":[
				-1.2814998626708984e-06,
				5.90562629699707,
				1.4334917068481445e-05
			]
		},
		{
			"children":[
				23
			],
			"name":"leg_hind_left_ankle",
			"rotation":[
				0.00802045688033104,
				0.03384910896420479,
				0.01849381998181343,
				0.9992236495018005
			],
			"scale":[
				1,
				1,
				0.9999998807907104
			],
			"translation":[
				-1.0728836059570312e-06,
				6.629773139953613,
				-1.0520219802856445e-05
			]
		},
		{
			"children":[
				24
			],
			"name":"leg_hind_left_bot0",
			"rotation":[
				-0.7117367386817932,
				-0.061655040830373764,
				-0.07156650722026825,
				0.6960659623146057
			],
			"scale":[
				1.0000001192092896,
				1,
				1.0000001192092896
			],
			"translation":[
				0,
				7.408671855926514,
				-1.519918441772461e-06
			]
		},
		{
			"children":[
				25
			],
			"name":"leg_hind_left_top1",
			"rotation":[
				-0.16239066421985626,
				0.191961869597435,
				-0.08247195929288864,
				0.9643537998199463
			],
			"scale":[
				1,
				1.0000001192092896,
				1.000000238418579
			],
			"translation":[
				1.1920928955078125e-07,
				5.0706963539123535,
				-5.066394805908203e-07
			]
		},
		{
			"children":[
				26
			],
			"name":"leg_hind_left_top0",
			"rotation":[
				0.034750986844301224,
				-0.3877122402191162,
				0.19619756937026978,
				0.8999878764152527
			],
			"scale":[
				1,
				1,
				0.9999999403953552
			],
			"translation":[
				-0.7589132785797119,
				5.313364505767822,
				-8.584827423095703
			]
		},
		{
			"name":"leg_hind_right_toe",
			"rotation":[
				-0.9563621282577515,
				-0.046333085745573044,
				-0.0463334396481514,
				0.28474193811416626
			],
			"scale":[
				0.9999999403953552,
				1.0000001192092896,
				1.000001072883606
			],
			"translation":[
				5.960464477539062e-07,
				5.6977105140686035,
				-1.7881393432617188e-07
			]
		},
		{
			"children":[
				28
			],
			"name":"leg_hind_right_ankle",
			"rotation":[
				0.1751948744058609,
				0.0699850469827652,
				-0.024791304022073746,
				0.9817302823066711
			],
			"scale":[
				1,
				1,
				0.9999999403953552
			],
			"translation":[
				1.4901161193847656e-06,
				5.466732501983643,
				2.332031726837158e-06
			]
		},
		{
			"children":[
				29
			],
			"name":"leg_hind_right_bot0",
			"rotation":[
				-0.23560717701911926,
				0.03328752517700195,
				-0.008813763037323952,
				0.9712381958961487
			],
			"scale":[
				0.9999999403953552,
				1.0000001192092896,
				1.000000238418579
			],
			"translation":[
				-1.7881393432617188e-07,
				4.361156463623047,
				-1.7881393432617188e-07
			]
		},
		{
			"children":[
				30
			],
			"name":"leg_hind_right_top1",
			"rotation":[
				-0.036768559366464615,
				-7.624412683071569e-05,
				0.0019116263138130307,
				0.9993219971656799
			],
			"scale":[
				0.9999999403953552,
				1.0000001192092896,
				0.9999999403953552
			],
			"translation":[
				-2.384185791015625e-07,
				9.950682640075684,
				1.1920928955078125e-07
			]
		},
		{
			"children":[
				31
			],
			"name":"leg_hind_right_top0",
			"rotation":[
				0.14536036550998688,
				-0.32706597447395325,
				0.21374785900115967,
				0.9089609980583191
			],
			"scale":[
				0.9999998211860657,
				0.9999997615814209,
				0.9999998807907104
			],
			"translation":[
				2.7418136596679688e-06,
				13.529058456420898,
				-3.337860107421875e-06
			]
		},
		{
			"children":[
				22,
				27,
				32
			],
			"name":"body_bot",
			"rotation":[
				-0.9297278523445129,
				-0.05426134169101715,
				-0.36104723811149597,
				0.0480293408036232
			],
			"scale":[
				1.0000001192092896,
				0.9999998211860657,
				0.9999998807907104
			],
			"translation":[
				-2.5927438735961914,
				6.297189712524414,
				0.4792230725288391
			]
		},
		{
			"children":[
				14,
				33
			],
			"name":"body",
			"rotation":[
				0.3477419912815094,
				4.17742541003463e-07,
				0.08052493631839752,
				0.9341259598731995
			],
			"translation":[
				5.786406993865967,
				22.367395401000977,
				-7.783721923828125
			]
		},
		{
			"children":[
				34
			],
			"name":"root",
			"rotation":[
				-0.7071031928062439,
				0,
				0,
				0.7071103453636169
			],
			"translation":[
				0.2932271957397461,
				-0.0847320631146431,
				32.963706970214844
			]
		},
		{
			"mesh":0,
			"name":"cat",
			"skin":0
		},
		{
			"children":[
				36,
				35
			],
			"name":"rig",
			"rotation":[
				0.7071068286895752,
				0,
				0,
				0.7071068286895752
			]
		}
	],
	"animations":[
		{
			"channels":[
				{
					"sampler":0,
					"target":{
						"node":35,
						"path":"translation"
					}
				},
				{
					"sampler":1,
					"target":{
						"node":35,
						"path":"rotation"
					}
				},
				{
					"sampler":2,
					"target":{
						"node":35,
						"path":"scale"
					}
				},
				{
					"sampler":3,
					"target":{
						"node":34,
						"path":"translation"
					}
				},
				{
					"sampler":4,
					"target":{
						"node":34,
						"path":"rotation"
					}
				},
				{
					"sampler":5,
					"target":{
						"node":34,
						"path":"scale"
					}
				},
				{
					"sampler":6,
					"target":{
						"node":14,
						"path":"translation"
					}
				},
				{
					"sampler":7,
					"target":{
						"node":14,
						"path":"rotation"
					}
				},
				{
					"sampler":8,
					"target":{
						"node":14,
						"path":"scale"
					}
				},
				{
					"sampler":9,
					"target":{
						"node":13,
						"path":"translation"
					}
				},
				{
					"sampler":10,
					"target":{
						"node":13,
						"path":"rotation"
					}
				},
				{
					"sampler":11,
					"target":{
						"node":13,
						"path":"scale"
					}
				},
				{
					"sampler":12,
					"target":{
						"node":4,
						"path":"translation"
					}
				},
				{
					"sampler":13,
					"target":{
						"node":4,
						"path":"rotation"
					}
				},
				{
					"sampler":14,
					"target":{
						"node":4,
						"path":"scale"
					}
				},
				{
					"sampler":15,
					"target":{
						"node":3,
						"path":"translation"
					}
				},
				{
					"sampler":16,
					"target":{
						"node":3,
						"path":"rotation"
					}
				},
				{
					"sampler":17,
					"target":{
						"node":3,
						"path":"scale"
					}
				},
				{
					"sampler":18,
					"target":{
						"node":2,
						"path":"translation"
					}
				},
				{
					"sampler":19,
					"target":{
						"node":2,
						"path":"rotation"
					}
				},
				{
					"sampler":20,
					"target":{
						"node":2,
						"path":"scale"
					}
				},
				{
					"sampler":21,
					"target":{
						"node":1,
						"path":"translation"
					}
				},
				{
					"sampler":22,
					"target":{
						"node":1,
						"path":"rotation"
					}
				},
				{
					"sampler":23,
					"target":{
						"node":1,
						"path":"scale"
					}
				},
				{
					"sampler":24,
					"target":{
						"node":0,
						"path":"translation"
					}
				},
				{
					"sampler":25,
					"target":{
						"node":0,
						"path":"rotation"
					}
				},
				{
					"sampler":26,
					"target":{
						"node":0,
						"path":"scale"
					}
				},
				{
					"sampler":27,
					"target":{
						"node":7,
						"path":"translation"
					}
				},
				{
					"sampler":28,
					"target":{
						"node":7,
						"path":"rotation"
					}
				},
				{
					"sampler":29,
					"target":{
						"node":7,
						"path":"scale"
					}
				},
				{
					"sampler":30,
					"target":{
						"node":6,
						"path":"translation"
					}
				},
				{
					"sampler":31,
					"target":{
						"node":6,
						"path":"rotation"
					}
				},
				{
					"sampler":32,
					"target":{
						"node":6,
						"path":"scale"
					}
				},
				{
					"sampler":33,
					"target":{
						"node":5,
						"path":"translation"
					}
				},
				{
					"sampler":34,
					"target":{
						"node":5,
						"path":"rotation"
					}
				},
				{
					"sampler":35,
					"target":{
						"node":5,
						"path":"scale"
					}
				},
				{
					"sampler":36,
					"target":{
						"node":12,
						"path":"translation"
					}
				},
				{
					"sampler":37,
					"target":{
						"node":12,
						"path":"rotation"
					}
				},
				{
					"sampler":38,
					"target":{
						"node":12,
						"path":"scale"
					}
				},
				{
					"sampler":39,
					"target":{
						"node":11,
						"path":"translation"
					}
				},
				{
					"sampler":40,
					"target":{
						"node":11,
						"path":"rotation"
					}
				},
				{
					"sampler":41,
					"target":{
						"node":11,
						"path":"scale"
					}
				},
				{
					"sampler":42,
					"target":{
						"node":10,
						"path":"translation"
					}
				},
				{
					"sampler":43,
					"target":{
						"node":10,
						"path":"rotation"
					}
				},
				{
					"sampler":44,
					"target":{
						"node":10,
						"path":"scale"
					}
				},
				{
					"sampler":45,
					"target":{
						"node":9,
						"path":"translation"
					}
				},
				{
					"sampler":46,
					"target":{
						"node":9,
						"path":"rotation"
					}
				},
				{
					"sampler":47,
					"target":{
						"node":9,
						"path":"scale"
					}
				},
				{
					"sampler":48,
					"target":{
						"node":8,
						"path":"translation"
					}
				},
				{
					"sampler":49,
					"target":{
						"node":8,
						"path":"rotation"
					}
				},
				{
					"sampler":50,
					"target":{
						"node":8,
						"path":"scale"
					}
				},
				{
					"sampler":51,
					"target":{
						"node":33,
						"path":"translation"
					}
				},
				{
					"sampler":52,
					"target":{
						"node":33,
						"path":"rotation"
					}
				},
				{
					"sampler":53,
					"target":{
						"node":33,
						"path":"scale"
					}
				},
				{
					"sampler":54,
					"target":{
						"node":22,
						"path":"translation"
					}
				},
				{
					"sampler":55,
					"target":{
						"node":22,
						"path":"rotation"
					}
				},
				{
					"sampler":56,
					"target":{
						"node":22,
						"path":"scale"
					}
				},
				{
					"sampler":57,
					"target":{
						"node":21,
						"path":"translation"
					}
				},
				{
					"sampler":58,
					"target":{
						"node":21,
						"path":"rotation"
					}
				},
				{
					"sampler":59,
					"target":{
						"node":21,
						"path":"scale"
					}
				},
				{
					"sampler":60,
					"target":{
						"node":20,
						"path":"translation"
					}
				},
				{
					"sampler":61,
					"target":{
						"node":20,
						"path":"rotation"
					}
				},
				{
					"sampler":62,
					"target":{
						"node":20,
						"path":"scale"
					}
				},
				{
					"sampler":63,
					"target":{
						"node":19,
						"path":"translation"
					}
				},
				{
					"sampler":64,
					"target":{
						"node":19,
						"path":"rotation"
					}
				},
				{
					"sampler":65,
					"target":{
						"node":19,
						"path":"scale"
					}
				},
				{
					"sampler":66,
					"target":{
						"node":18,
						"path":"translation"
					}
				},
				{
					"sampler":67,
					"target":{
						"node":18,
						"path":"rotation"
					}
				},
				{
					"sampler":68,
					"target":{
						"node":18,
						"path":"scale"
					}
				},
				{
					"sampler":69,
					"target":{
						"node":17,
						"path":"translation"
					}
				},
				{
					"sampler":70,
					"target":{
						"node":17,
						"path":"rotation"
					}
				},
				{
					"sampler":71,
					"target":{
						"node":17,
						"path":"scale"
					}
				},
				{
					"sampler":72,
					"target":{
						"node":16,
						"path":"translation"
					}
				},
				{
					"sampler":73,
					"target":{
						"node":16,
						"path":"rotation"
					}
				},
				{
					"sampler":74,
					"target":{
						"node":16,
						"path":"scale"
					}
				},
				{
					"sampler":75,
					"target":{
						"node":15,
						"path":"translation"
					}
				},
				{
					"sampler":76,
					"target":{
						"node":15,
						"path":"rotation"
					}
				},
				{
					"sampler":77,
					"target":{
						"node":15,
						"path":"scale"
					}
				},
				{
					"sampler":78,
					"target":{
						"node":27,
						"path":"translation"
					}
				},
				{
					"sampler":79,
					"target":{
						"node":27,
						"path":"rotation"
					}
				},
				{
					"sampler":80,
					"target":{
						"node":27,
						"path":"scale"
					}
				},
				{
					"sampler":81,
					"target":{
						"node":26,
						"path":"translation"
					}
				},
				{
					"sampler":82,
					"target":{
						"node":26,
						"path":"rotation"
					}
				},
				{
					"sampler":83,
					"target":{
						"node":26,
						"path":"scale"
					}
				},
				{
					"sampler":84,
					"target":{
						"node":25,
						"path":"translation"
					}
				},
				{
					"sampler":85,
					"target":{
						"node":25,
						"path":"rotation"
					}
				},
				{
					"sampler":86,
					"target":{
						"node":25,
						"path":"scale"
					}
				},
				{
					"sampler":87,
					"target":{
						"node":24,
						"path":"translation"
					}
				},
				{
					"sampler":88,
					"target":{
						"node":24,
						"path":"rotation"
					}
				},
				{
					"sampler":89,
					"target":{
						"node":24,
						"path":"scale"
					}
				},
				{
					"sampler":90,
					"target":{
						"node":23,
						"path":"translation"
					}
				},
				{
					"sampler":91,
					"target":{
						"node":23,
						"path":"rotation"
					}
				},
				{
					"sampler":92,
					"target":{
						"node":23,
						"path":"scale"
					}
				},
				{
					"sampler":93,
					"target":{
						"node":32,
						"path":"translation"
					}
				},
				{
					"sampler":94,
					"target":{
						"node":32,
						"path":"rotation"
					}
				},
				{
					"sampler":95,
					"target":{
						"node":32,
						"path":"scale"
					}
				},
				{
					"sampler":96,
					"target":{
						"node":31,
						"path":"translation"
					}
				},
				{
					"sampler":97,
					"target":{
						"node":31,
						"path":"rotation"
					}
				},
				{
					"sampler":98,
					"target":{
						"node":31,
						"path":"scale"
					}
				},
				{
					"sampler":99,
					"target":{
						"node":30,
						"path":"translation"
					}
				},
				{
					"sampler":100,
					"target":{
						"node":30,
						"path":"rotation"
					}
				},
				{
					"sampler":101,
					"target":{
						"node":30,
						"path":"scale"
					}
				},
				{
					"sampler":102,
					"target":{
						"node":29,
						"path":"translation"
					}
				},
				{
					"sampler":103,
					"target":{
						"node":29,
						"path":"rotation"
					}
				},
				{
					"sampler":104,
					"target":{
						"node":29,
						"path":"scale"
					}
				},
				{
					"sampler":105,
					"target":{
						"node":28,
						"path":"translation"
					}
				},
				{
					"sampler":106,
					"target":{
						"node":28,
						"path":"rotation"
					}
				},
				{
					"sampler":107,
					"target":{
						"node":28,
						"path":"scale"
					}
				},
				{
					"sampler":108,
					"target":{
						"node":37,
						"path":"translation"
					}
				},
				{
					"sampler":109,
					"target":{
						"node":37,
						"path":"rotation"
					}
				},
				{
					"sampler":110,
					"target":{
						"node":37,
						"path":"scale"
					}
				}
			],
			"name":"rig|rig|run",
			"samplers":[
				{
					"input":7,
					"interpolation":"STEP",
					"output":8
				},
				{
					"input":7,
					"interpolation":"STEP",
					"output":9
				},
				{
					"input":7,
					"interpolation":"STEP",
					"output":10
				},
				{
					"input":7,
					"interpolation":"STEP",
					"output":11
				},
				{
					"input":12,
					"interpolation":"LINEAR",
					"output":13
				},
				{
					"input":7,
					"interpolation":"STEP",
					"output":14
				},
				{
					"input":7,
					"interpolation":"STEP",
					"output":15
				},
				{
					"input":12,
					"interpolation":"LINEAR",
					"output":16
				},
				{
					"input":7,
					"interpolation":"STEP",
					"output":17
				},
				{
					"input":7,
					"interpolation":"STEP",
					"output":18
				},
				{
					"input":12,
					"interpolation":"LINEAR",
					"output":19
				},
				{
					"input":7,
					"interpolation":"STEP",
					"output":20
				},
				{
					"input":7,
					"interpolation":"STEP",
					"output":21
				},
				{
					"input":12,
					"interpolation":"LINEAR",
					"output":22
				},
				{
					"input":7,
					"interpolation":"STEP",
					"output":23
				},
				{
					"input":7,
					"interpolation":"STEP",
					"output":24
				},
				{
					"input":12,
					"interpolation":"LINEAR",
					"output":25
				},
				{
					"input":7,
					"interpolation":"STEP",
					"output":26
				},
				{
					"input":7,
					"interpolation":"STEP",
					"output":27
				},
				{
					"input":12,
					"interpolation":"LINEAR",
					"output":28
				},
				{
					"input":7,
					"interpolation":"STEP",
					"output":29
				},
				{
					"input":7,
					"interpolation":"STEP",
					"output":30
				},
				{
					"input":12,
					"interpolation":"LINEAR",
					"output":31
				},
				{
					"input":7,
					"interpolation":"STEP",
					"output":32
				},
				{
					"input":7,
					"interpolation":"STEP",
					"output":33
				},
				{
					"input":12,
					"interpolation":"LINEAR",
					"output":34
				},
				{
					"input":7,
					"interpolation":"STEP",
					"output":35
				},
				{
					"input":7,
					"interpolation":"STEP",
					"output":36
				},
				{
					"input":12,
					"interpolation":"LINEAR",
					"output":37
				},
				{
					"input":7,
					"interpolation":"STEP",
					"output":38
				},
				{
					"input":7,
					"interpolation":"STEP",
					"output":39
				},
				{
					"input":12,
					"interpolation":"LINEAR",
					"output":40
				},
				{
					"input":7,
					"interpolation":"STEP",
					"output":41
				},
				{
					"input":7,
					"interpolation":"LINEAR",
					"output":42
				},
				{
					"input":12,
					"interpolation":"LINEAR",
					"output":43
				},
				{
					"input":7,
					"interpolation":"STEP",
					"output":44
				},
				{
					"input":7,
					"interpolation":"STEP",
					"output":45
				},
				{
					"input":12,
					"interpolation":"LINEAR",
					"output":46
				},
				{
					"input":7,
					"interpolation":"STEP",
					"output":47
				},
				{
					"input":7,
					"interpolation":"STEP",
					"output":48
				},
				{
					"input":12,
					"interpolation":"LINEAR",
					"output":49
				},
				{
					"input":7,
					"interpolation":"STEP",
					"output":50
				},
				{
					"input":7,
					"interpolation":"STEP",
					"output":51
				},
				{
					"input":12,
					"interpolation":"LINEAR",
					"output":52
				},
				{
					"input":7,
					"interpolation":"STEP",
					"output":53
				},
				{
					"input":7,
					"interpolation":"STEP",
					"output":54
				},
				{
					"input":12,
					"interpolation":"LINEAR",
					"output":55
				},
				{
					"input":7,
					"interpolation":"STEP",
					"output":56
				},
				{
					"input":7,
					"interpolation":"STEP",
					"output":57
				},
				{
					"input":12,
					"interpolation":"LINEAR",
					"output":58
				},
				{
					"input":7,
					"interpolation":"STEP",
					"output":59
				},
				{
					"input":7,
					"interpolation":"STEP",
					"output":60
				},
				{
					"input":12,
					"interpolation":"LINEAR",
					"output":61
				},
				{
					"input":7,
					"interpolation":"STEP",
					"output":62
				},
				{
					"input":7,
					"interpolation":"STEP",
					"output":63
				},
				{
					"input":12,
					"interpolation":"LINEAR",
					"output":64
				},
				{
					"input":7,
					"interpolation":"STEP",
					"output":65
				},
				{
					"input":7,
					"interpolation":"STEP",
					"output":66
				},
				{
					"input":12,
					"interpolation":"LINEAR",
					"output":67
				},
				{
					"input":7,
					"interpolation":"STEP",
					"output":68
				},
				{
					"input":7,
					"interpolation":"STEP",
					"output":69
				},
				{
					"input":12,
					"interpolation":"LINEAR",
					"output":70
				},
				{
					"input":7,
					"interpolation":"STEP",
					"output":71
				},
				{
					"input":7,
					"interpolation":"STEP",
					"output":72
				},
				{
					"input":12,
					"interpolation":"LINEAR",
					"output":73
				},
				{
					"input":7,
					"interpolation":"STEP",
					"output":74
				},
				{
					"input":7,
					"interpolation":"STEP",
					"output":75
				},
				{
					"input":12,
					"interpolation":"LINEAR",
					"output":76
				},
				{
					"input":7,
					"interpolation":"STEP",
					"output":77
				},
				{
					"input":7,
					"interpolation":"STEP",
					"output":78
				},
				{
					"input":12,
					"interpolation":"LINEAR",
					"output":79
				},
				{
					"input":7,
					"interpolation":"STEP",
					"output":80
				},
				{
					"input":7,
					"interpolation":"STEP",
					"output":81
				},
				{
					"input":12,
					"interpolation":"LINEAR",
					"output":82
				},
				{
					"input":7,
					"interpolation":"STEP",
					"output":83
				},
				{
					"input":7,
					"interpolation":"STEP",
					"output":84
				},
				{
					"input":12,
					"interpolation":"LINEAR",
					"output":85
				},
				{
					"input":7,
					"interpolation":"STEP",
					"output":86
				},
				{
					"input":7,
					"interpolation":"STEP",
					"output":87
				},
				{
					"input":12,
					"interpolation":"LINEAR",
					"output":88
				},
				{
					"input":7,
					"interpolation":"STEP",
					"output":89
				},
				{
					"input":7,
					"interpolation":"STEP",
					"output":90
				},
				{
					"input":12,
					"interpolation":"LINEAR",
					"output":91
				},
				{
					"input":7,
					"interpolation":"STEP",
					"output":92
				},
				{
					"input":7,
					"interpolation":"LINEAR",
					"output":93
				},
				{
					"input":12,
					"interpolation":"LINEAR",
					"output":94
				},
				{
					"input":7,
					"interpolation":"LINEAR",
					"output":95
				},
				{
					"input":7,
					"interpolation":"LINEAR",
					"output":96
				},
				{
					"input":12,
					"interpolation":"LINEAR",
					"output":97
				},
				{
					"input":7,
					"interpolation":"STEP",
					"output":98
				},
				{
					"input":7,
					"interpolation":"LINEAR",
					"output":99
				},
				{
					"input":12,
					"interpolation":"LINEAR",
					"output":100
				},
				{
					"input":7,
					"interpolation":"LINEAR",
					"output":101
				},
				{
					"input":7,
					"interpolation":"STEP",
					"output":102
				},
				{
					"input":12,
					"interpolation":"LINEAR",
					"output":103
				},
				{
					"input":7,
					"interpolation":"STEP",
					"output":104
				},
				{
					"input":7,
					"interpolation":"STEP",
					"output":105
				},
				{
					"input":12,
					"interpolation":"LINEAR",
					"output":106
				},
				{
					"input":7,
					"interpolation":"STEP",
					"output":107
				},
				{
					"input":7,
					"interpolation":"STEP",
					"output":108
				},
				{
					"input":12,
					"interpolation":"LINEAR",
					"output":109
				},
				{
					"input":7,
					"interpolation":"STEP",
					"output":110
				},
				{
					"input":7,
					"interpolation":"STEP",
					"output":111
				},
				{
					"input":12,
					"interpolation":"LINEAR",
					"output":112
				},
				{
					"input":7,
					"interpolation":"STEP",
					"output":113
				},
				{
					"input":7,
					"interpolation":"STEP",
					"output":114
				},
				{
					"input":12,
					"interpolation":"LINEAR",
					"output":115
				},
				{
					"input":7,
					"interpolation":"STEP",
					"output":116
				},
				{
					"input":7,
					"interpolation":"STEP",
					"output":117
				},
				{
					"input":7,
					"interpolation":"STEP",
					"output":118
				},
				{
					"input":7,
					"interpolation":"STEP",
					"output":119
				}
			]
		}
	],
	"materials":[
		{
			"doubleSided":true,
			"extensions":{
				"KHR_materials_specular":{
					"specularColorFactor":[
						2.0,
						2.0,
						2.0
					]
				}
			},
			"name":"Material.002",
			"pbrMetallicRoughness":{
				"metallicFactor":0,
				"roughnessFactor":0.6951627731323242
			}
		}
	],
	"meshes":[
		{
			"name":"cat",
			"primitives":[
				{
					"attributes":{
						"POSITION":0,
						"NORMAL":1,
						"TEXCOORD_0":2,
						"JOINTS_0":3,
						"WEIGHTS_0":4
					},
					"indices":5,
					"material":0
				}
			]
		}
	],
	"skins":[
		{
			"inverseBindMatrices":6,
			"joints":[
				35,
				34,
				14,
				13,
				4,
				3,
				2,
				1,
				0,
				7,
				6,
				5,
				12,
				11,
				10,
				9,
				8,
				33,
				22,
				21,
				20,
				19,
				18,
				17,
				16,
				15,
				27,
				26,
				25,
				24,
				23,
				32,
				31,
				30,
				29,
				28
			],
			"name":"rig"
		}
	],
	"accessors":[
		{
			"bufferView":0,
			"componentType":5126,
			"count":14683,
			"max":[
				12.114109992980957,
				32.96371078491211,
				35.61893844604492
			],
			"min":[
				-11.527657508850098,
				-32.96370315551758,
				-35.788387298583984
			],
			"type":"VEC3"
		},
		{
			"bufferView":1,
			"componentType":5126,
			"count":14683,
			"type":"VEC3"
		},
		{
			"bufferView":2,
			"componentType":5126,
			"count":14683,
			"type":"VEC2"
		},
		{
			"bufferView":3,
			"componentType":5121,
			"count":14683,
			"type":"VEC4"
		},
		{
			"bufferView":4,
			"componentType":5126,
			"count":14683,
			"type":"VEC4"
		},
		{
			"bufferView":5,
			"componentType":5123,
			"count":59277,
			"type":"SCALAR"
		},
		{
			"bufferView":6,
			"componentType":5126,
			"count":36,
			"type":"MAT4"
		},
		{
			"bufferView":7,
			"componentType":5126,
			"count":2,
			"max":[
				0.43333333333333335
			],
			"min":[
				0.03333333333333333
			],
			"type":"SCALAR"
		},
		{
			"bufferView":8,
			"componentType":5126,
			"count":2,
			"type":"VEC3"
		},
		{
			"bufferView":9,
			"componentType":5126,
			"count":2,
			"type":"VEC4"
		},
		{
			"bufferView":10,
			"componentType":5126,
			"count":2,
			"type":"VEC3"
		},
		{
			"bufferView":11,
			"componentType":5126,
			"count":2,
			"type":"VEC3"
		},
		{
			"bufferView":12,
			"componentType":5126,
			"count":13,
			"max":[
				0.43333333333333335
			],
			"min":[
				0.03333333333333333
			],
			"type":"SCALAR"
		},
		{
			"bufferView":13,
			"componentType":5126,
			"count":13,
			"type":"VEC4"
		},
		{
			"bufferView":14,
			"componentType":5126,
			"count":2,
			"type":"VEC3"
		},
		{
			"bufferView":15,
			"componentType":5126,
			"count":2,
			"type":"VEC3"
		},
		{
			"bufferView":16,
			"componentType":5126,
			"count":13,
			"type":"VEC4"
		},
		{
			"bufferView":17,
			"componentType":5126,
			"count":2,
			"type":"VEC3"
		},
		{
			"bufferView":18,
			"componentType":5126,
			"count":2,
			"type":"VEC3"
		},
		{
			"bufferView":19,
			"componentType":5126,
			"count":13,
			"type":"VEC4"
		},
		{
			"bufferView":20,
			"componentType":5126,
			"count":2,
			"type":"VEC3"
		},
		{
			"bufferView":21,
			"componentType":5126,
			"count":2,
			"type":"VEC3"
		},
		{
			"bufferView":22,
			"componentType":5126,
			"count":13,
			"type":"VEC4"
		},
		{
			"bufferView":23,
			"componentType":5126,
			"count":2,
			"type":"VEC3"
		},
		{
			"bufferView":24,
			"componentType":5126,
			"count":2,
			"type":"VEC3"
		},
		{
			"bufferView":25,
			"componentType":5126,
			"count":13,
			"type":"VEC4"
		},
		{
			"bufferView":26,
			"componentType":5126,
			"count":2,
			"type":"VEC3"
		},
		{
			"bufferView":27,
			"componentType":5126,
			"count":2,
			"type":"VEC3"
		},
		{
			"bufferView":28,
			"componentType":5126,
			"count":13,
			"type":"VEC4"
		},
		{
			"bufferView":29,
			"componentType":5126,
			"count":2,
			"type":"VEC3"
		},
		{
			"bufferView":30,
			"componentType":5126,
			"count":2,
			"type":"VEC3"
		},
		{
			"bufferView":31,
			"componentType":5126,
			"count":13,
			"type":"VEC4"
		},
		{
			"bufferView":32,
			"componentType":5126,
			"count":2,
			"type":"VEC3"
		},
		{
			"bufferView":33,
			"componentType":5126,
			"count":2,
			"type":"VEC3"
		},
		{
			"bufferView":34,
			"componentType":5126,
			"count":13,
			"type":"VEC4"
		},
		{
			"bufferView":35,
			"componentType":5126,
			"count":2,
			"type":"VEC3"
		},
		{
			"bufferView":36,
			"componentType":5126,
			"count":2,
			"type":"VEC3"
		},
		{
			"bufferView":37,
			"componentType":5126,
			"count":13,
			"type":"VEC4"
		},
		{
			"bufferView":38,
			"componentType":5126,
			"count":2,
			"type":"VEC3"
		},
		{
			"bufferView":39,
			"componentType":5126,
			"count":2,
			"type":"VEC3"
		},
		{
			"bufferView":40,
			"componentType":5126,
			"count":13,
			"type":"VEC4"
		},
		{
			"bufferView":41,
			"componentType":5126,
			"count":2,
			"type":"VEC3"
		},
		{
			"bufferView":42,
			"componentType":5126,
			"count":2,
			"type":"VEC3"
		},
		{
			"bufferView":43,
			"componentType":5126,
			"count":13,
			"type":"VEC4"
		},
		{
			"bufferView":44,
			"componentType":5126,
			"count":2,
			"type":"VEC3"
		},
		{
			"bufferView":45,
			"componentType":5126,
			"count":2,
			"type":"VEC3"
		},
		{
			"bufferView":46,
			"componentType":5126,
			"count":13,
			"type":"VEC4"
		},
		{
			"bufferView":47,
			"componentType":5126,
			"count":2,
			"type":"VEC3"
		},
		{
			"bufferView":48,
			"componentType":5126,
			"count":2,
			"type":"VEC3"
		},
		{
			"bufferView":49,
			"componentType":5126,
			"count":13,
			"type":"VEC4"
		},
		{
			"bufferView":50,
			"componentType":5126,
			"count":2,
			"type":"VEC3"
		},
		{
			"bufferView":51,
			"componentType":5126,
			"count":2,
			"type":"VEC3"
		},
		{
			"bufferView":52,
			"componentType":5126,
			"count":13,
			"type":"VEC4"
		},
		{
			"bufferView":53,
			"componentType":5126,
			"count":2,
			"type":"VEC3"
		},
		{
			"bufferView":54,
			"componentType":5126,
			"count":2,
			"type":"VEC3"
		},
		{
			"bufferView":55,
			"componentType":5126,
			"count":13,
			"type":"VEC4"
		},
		{
			"bufferView":56,
			"componentType":5126,
			"count":2,
			"type":"VEC3"
		},
		{
			"bufferView":57,
			"componentType":5126,
			"count":2,
			"type":"VEC3"
		},
		{
			"bufferView":58,
			"componentType":5126,
			"count":13,
			"type":"VEC4"
		},
		{
			"bufferView":59,
			"componentType":5126,
			"count":2,
			"type":"VEC3"
		},
		{
			"bufferView":60,
			"componentType":5126,
			"count":2,
			"type":"VEC3"
		},
		{
			"bufferView":61,
			"componentType":5126,
			"count":13,
			"type":"VEC4"
		},
		{
			"bufferView":62,
			"componentType":5126,
			"count":2,
			"type":"VEC3"
		},
		{
			"bufferView":63,
			"componentType":5126,
			"count":2,
			"type":"VEC3"
		},
		{
			"bufferView":64,
			"componentType":5126,
			"count":13,
			"type":"VEC4"
		},
		{
			"bufferView":65,
			"componentType":5126,
			"count":2,
			"type":"VEC3"
		},
		{
			"bufferView":66,
			"componentType":5126,
			"count":2,
			"type":"VEC3"
		},
		{
			"bufferView":67,
			"componentType":5126,
			"count":13,
			"type":"VEC4"
		},
		{
			"bufferView":68,
			"componentType":5126,
			"count":2,
			"type":"VEC3"
		},
		{
			"bufferView":69,
			"componentType":5126,
			"count":2,
			"type":"VEC3"
		},
		{
			"bufferView":70,
			"componentType":5126,
			"count":13,
			"type":"VEC4"
		},
		{
			"bufferView":71,
			"componentType":5126,
			"count":2,
			"type":"VEC3"
		},
		{
			"bufferView":72,
			"componentType":5126,
			"count":2,
			"type":"VEC3"
		},
		{
			"bufferView":73,
			"componentType":5126,
			"count":13,
			"type":"VEC4"
		},
		{
			"bufferView":74,
			"componentType":5126,
			"count":2,
			"type":"VEC3"
		},
		{
			"bufferView":75,
			"componentType":5126,
			"count":2,
			"type":"VEC3"
		},
		{
			"bufferView":76,
			"componentType":5126,
			"count":13,
			"type":"VEC4"
		},
		{
			"bufferView":77,
			"componentType":5126,
			"count":2,
			"type":"VEC3"
		},
		{
			"bufferView":78,
			"componentType":5126,
			"count":2,
			"type":"VEC3"
		},
		{
			"bufferView":79,
			"componentType":5126,
			"count":13,
			"type":"VEC4"
		},
		{
			"bufferView":80,
			"componentType":5126,
			"count":2,
			"type":"VEC3"
		},
		{
			"bufferView":81,
			"componentType":5126,
			"count":2,
			"type":"VEC3"
		},
		{
			"bufferView":82,
			"componentType":5126,
			"count":13,
			"type":"VEC4"
		},
		{
			"bufferView":83,
			"componentType":5126,
			"count":2,
			"type":"VEC3"
		},
		{
			"bufferView":84,
			"componentType":5126,
			"count":2,
			"type":"VEC3"
		},
		{
			"bufferView":85,
			"componentType":5126,
			"count":13,
			"type":"VEC4"
		},
		{
			"bufferView":86,
			"componentType":5126,
			"count":2,
			"type":"VEC3"
		},
		{
			"bufferView":87,
			"componentType":5126,
			"count":2,
			"type":"VEC3"
		},
		{
			"bufferView":88,
			"componentType":5126,
			"count":13,
			"type":"VEC4"
		},
		{
			"bufferView":89,
			"componentType":5126,
			"count":2,
			"type":"VEC3"
		},
		{
			"bufferView":90,
			"componentType":5126,
			"count":2,
			"type":"VEC3"
		},
		{
			"bufferView":91,
			"componentType":5126,
			"count":13,
			"type":"VEC4"
		},
		{
			"bufferView":92,
			"componentType":5126,
			"count":2,
			"type":"VEC3"
		},
		{
			"bufferView":93,
			"componentType":5126,
			"count":2,
			"type":"VEC3"
		},
		{
			"bufferView":94,
			"componentType":5126,
			"count":13,
			"type":"VEC4"
		},
		{
			"bufferView":95,
			"componentType":5126,
			"count":2,
			"type":"VEC3"
		},
		{
			"bufferView":96,
			"componentType":5126,
			"count":2,
			"type":"VEC3"
		},
		{
			"bufferView":97,
			"componentType":5126,
			"count":13,
			"type":"VEC4"
		},
		{
			"bufferView":98,
			"componentType":5126,
			"count":2,
			"type":"VEC3"
		},
		{
			"bufferView":99,
			"componentType":5126,
			"count":2,
			"type":"VEC3"
		},
		{
			"bufferView":100,
			"componentType":5126,
			"count":13,
			"type":"VEC4"
		},
		{
			"bufferView":101,
			"componentType":5126,
			"count":2,
			"type":"VEC3"
		},
		{
			"bufferView":102,
			"componentType":5126,
			"count":2,
			"type":"VEC3"
		},
		{
			"bufferView":103,
			"componentType":5126,
			"count":13,
			"type":"VEC4"
		},
		{
			"bufferView":104,
			"componentType":5126,
			"count":2,
			"type":"VEC3"
		},
		{
			"bufferView":105,
			"componentType":5126,
			"count":2,
			"type":"VEC3"
		},
		{
			"bufferView":106,
			"componentType":5126,
			"count":13,
			"type":"VEC4"
		},
		{
			"bufferView":107,
			"componentType":5126,
			"count":2,
			"type":"VEC3"
		},
		{
			"bufferView":108,
			"componentType":5126,
			"count":2,
			"type":"VEC3"
		},
		{
			"bufferView":109,
			"componentType":5126,
			"count":13,
			"type":"VEC4"
		},
		{
			"bufferView":110,
			"componentType":5126,
			"count":2,
			"type":"VEC3"
		},
		{
			"bufferView":111,
			"componentType":5126,
			"count":2,
			"type":"VEC3"
		},
		{
			"bufferView":112,
			"componentType":5126,
			"count":13,
			"type":"VEC4"
		},
		{
			"bufferView":113,
			"componentType":5126,
			"count":2,
			"type":"VEC3"
		},
		{
			"bufferView":114,
			"componentType":5126,
			"count":2,
			"type":"VEC3"
		},
		{
			"bufferView":115,
			"componentType":5126,
			"count":13,
			"type":"VEC4"
		},
		{
			"bufferView":116,
			"componentType":5126,
			"count":2,
			"type":"VEC3"
		},
		{
			"bufferView":117,
			"componentType":5126,
			"count":2,
			"type":"VEC3"
		},
		{
			"bufferView":118,
			"componentType":5126,
			"count":2,
			"type":"VEC4"
		},
		{
			"bufferView":119,
			"componentType":5126,
			"count":2,
			"type":"VEC3"
		}
	],
	"bufferViews":[
		{
			"buffer":0,
			"byteLength":176196,
			"byteOffset":0,
			"target":34962
		},
		{
			"buffer":0,
			"byteLength":176196,
			"byteOffset":176196,
			"target":34962
		},
		{
			"buffer":0,
			"byteLength":117464,
			"byteOffset":352392,
			"target":34962
		},
		{
			"buffer":0,
			"byteLength":58732,
			"byteOffset":469856,
			"target":34962
		},
		{
			"buffer":0,
			"byteLength":234928,
			"byteOffset":528588,
			"target":34962
		},
		{
			"buffer":0,
			"byteLength":118554,
			"byteOffset":763516,
			"target":34963
		},
		{
			"buffer":0,
			"byteLength":2304,
			"byteOffset":882072
		},
		{
			"buffer":0,
			"byteLength":8,
			"byteOffset":884376
		},
		{
			"buffer":0,
			"byteLength":24,
			"byteOffset":884384
		},
		{
			"buffer":0,
			"byteLength":32,
			"byteOffset":884408
		},
		{
			"buffer":0,
			"byteLength":24,
			"byteOffset":884440
		},
		{
			"buffer":0,
			"byteLength":24,
			"byteOffset":884464
		},
		{
			"buffer":0,
			"byteLength":52,
			"byteOffset":884488
		},
		{
			"buffer":0,
			"byteLength":208,
			"byteOffset":884540
		},
		{
			"buffer":0,
			"byteLength":24,
			"byteOffset":884748
		},
		{
			"buffer":0,
			"byteLength":24,
			"byteOffset":884772
		},
		{
			"buffer":0,
			"byteLength":208,
			"byteOffset":884796
		},
		{
			"buffer":0,
			"byteLength":24,
			"byteOffset":885004
		},
		{
			"buffer":0,
			"byteLength":24,
			"byteOffset":885028
		},
		{
			"buffer":0,
			"byteLength":208,
			"byteOffset":885052
		},
		{
			"buffer":0,
			"byteLength":24,
			"byteOffset":885260
		},
		{
			"buffer":0,
			"byteLength":24,
			"byteOffset":885284
		},
		{
			"buffer":0,
			"byteLength":208,
			"byteOffset":885308
		},
		{
			"buffer":0,
			"byteLength":24,
			"byteOffset":885516
		},
		{
			"buffer":0,
			"byteLength":24,
			"byteOffset":885540
		},
		{
			"buffer":0,
			"byteLength":208,
			"byteOffset":885564
		},
		{
			"buffer":0,
			"byteLength":24,
			"byteOffset":885772
		},
		{
			"buffer":0,
			"byteLength":24,
			"byteOffset":885796
		},
		{
			"buffer":0,
			"byteLength":208,
			"byteOffset":885820
		},
		{
			"buffer":0,
			"byteLength":24,
			"byteOffset":886028
		},
		{
			"buffer":0,
			"byteLength":24,
			"byteOffset":886052
		},
		{
			"buffer":0,
			"byteLength":208,
			"byteOffset":886076
		},
		{
			"buffer":0,
			"byteLength":24,
			"byteOffset":886284
		},
		{
			"buffer":0,
			"byteLength":24,
			"byteOffset":886308
		},
		{
			"buffer":0,
			"byteLength":208,
			"byteOffset":886332
		},
		{
			"buffer":0,
			"byteLength":24,
			"byteOffset":886540
		},
		{
			"buffer":0,
			"byteLength":24,
			"byteOffset":886564
		},
		{
			"buffer":0,
			"byteLength":208,
			"byteOffset":886588
		},
		{
			"buffer":0,
			"byteLength":24,
			"byteOffset":886796
		},
		{
			"buffer":0,
			"byteLength":24,
			"byteOffset":886820
		},
		{
			"buffer":0,
			"byteLength":208,
			"byteOffset":886844
		},
		{
			"buffer":0,
			"byteLength":24,
			"byteOffset":887052
		},
		{
			"buffer":0,
			"byteLength":24,
			"byteOffset":887076
		},
		{
			"buffer":0,
			"byteLength":208,
			"byteOffset":887100
		},
		{
			"buffer":0,
			"byteLength":24,
			"byteOffset":887308
		},
		{
			"buffer":0,
			"byteLength":24,
			"byteOffset":887332
		},
		{
			"buffer":0,
			"byteLength":208,
			"byteOffset":887356
		},
		{
			"buffer":0,
			"byteLength":24,
			"byteOffset":887564
		},
		{
			"buffer":0,
			"byteLength":24,
			"byteOffset":887588
		},
		{
			"buffer":0,
			"byteLength":208,
			"byteOffset":887612
		},
		{
			"buffer":0,
			"byteLength":24,
			"byteOffset":887820
		},
		{
			"buffer":0,
			"byteLength":24,
			"byteOffset":887844
		},
		{
			"buffer":0,
			"byteLength":208,
			"byteOffset":887868
		},
		{
			"buffer":0,
			"byteLength":24,
			"byteOffset":888076
		},
		{
			"buffer":0,
			"byteLength":24,
			"byteOffset":888100
		},
		{
			"buffer":0,
			"byteLength":208,
			"byteOffset":888124
		},
		{
			"buffer":0,
			"byteLength":24,
			"byteOffset":888332
		},
		{
			"buffer":0,
			"byteLength":24,
			"byteOffset":888356
		},
		{
			"buffer":0,
			"byteLength":208,
			"byteOffset":888380
		},
		{
			"buffer":0,
			"byteLength":24,
			"byteOffset":888588
		},
		{
			"buffer":0,
			"byteLength":24,
			"byteOffset":888612
		},
		{
			"buffer":0,
			"byteLength":208,
			"byteOffset":888636
		},
		{
			"buffer":0,
			"byteLength":24,
			"byteOffset":888844
		},
		{
			"buffer":0,
			"byteLength":24,
			"byteOffset":888868
		},
		{
			"buffer":0,
			"byteLength":208,
			"byteOffset":888892
		},
		{
			"buffer":0,
			"byteLength":24,
			"byteOffset":889100
		},
		{
			"buffer":0,
			"byteLength":24,
			"byteOffset":889124
		},
		{
			"buffer":0,
			"byteLength":208,
			"byteOffset":889148
		},
		{
			"buffer":0,
			"byteLength":24,
			"byteOffset":889356
		},
		{
			"buffer":0,
			"byteLength":24,
			"byteOffset":889380
		},
		{
			"buffer":0,
			"byteLength":208,
			"byteOffset":889404
		},
		{
			"buffer":0,
			"byteLength":24,
			"byteOffset":889612
		},
		{
			"buffer":0,
			"byteLength":24,
			"byteOffset":889636
		},
		{
			"buffer":0,
			"byteLength":208,
			"byteOffset":889660
		},
		{
			"buffer":0,
			"byteLength":24,
			"byteOffset":889868
		},
		{
			"buffer":0,
			"byteLength":24,
			"byteOffset":889892
		},
		{
			"buffer":0,
			"byteLength":208,
			"byteOffset":889916
		},
		{
			"buffer":0,
			"byteLength":24,
			"byteOffset":890124
		},
		{
			"buffer":0,
			"byteLength":24,
			"byteOffset":890148
		},
		{
			"buffer":0,
			"byteLength":208,
			"byteOffset":890172
		},
		{
			"buffer":0,
			"byteLength":24,
			"byteOffset":890380
		},
		{
			"buffer":0,
			"byteLength":24,
			"byteOffset":890404
		},
		{
			"buffer":0,
			"byteLength":208,
			"byteOffset":890428
		},
		{
			"buffer":0,
			"byteLength":24,
			"byteOffset":890636
		},
		{
			"buffer":0,
			"byteLength":24,
			"byteOffset":890660
		},
		{
			"buffer":0,
			"byteLength":208,
			"byteOffset":890684
		},
		{
			"buffer":0,
			"byteLength":24,
			"byteOffset":890892
		},
		{
			"buffer":0,
			"byteLength":24,
			"byteOffset":890916
		},
		{
			"buffer":0,
			"byteLength":208,
			"byteOffset":890940
		},
		{
			"buffer":0,
			"byteLength":24,
			"byteOffset":891148
		},
		{
			"buffer":0,
			"byteLength":24,
			"byteOffset":891172
		},
		{
			"buffer":0,
			"byteLength":208,
			"byteOffset":891196
		},
		{
			"buffer":0,
			"byteLength":24,
			"byteOffset":891404
		},
		{
			"buffer":0,
			"byteLength":24,
			"byteOffset":891428
		},
		{
			"buffer":0,
			"byteLength":208,
			"byteOffset":891452
		},
		{
			"buffer":0,
			"byteLength":24,
			"byteOffset":891660
		},
		{
			"buffer":0,
			"byteLength":24,
			"byteOffset":891684
		},
		{
			"buffer":0,
			"byteLength":208,
			"byteOffset":891708
		},
		{
			"buffer":0,
			"byteLength":24,
			"byteOffset":891916
		},
		{
			"buffer":0,
			"byteLength":24,
			"byteOffset":891940
		},
		{
			"buffer":0,
			"byteLength":208,
			"byteOffset":891964
		},
		{
			"buffer":0,
			"byteLength":24,
			"byteOffset":892172
		},
		{
			"buffer":0,
			"byteLength":24,
			"byteOffset":892196
		},
		{
			"buffer":0,
			"byteLength":208,
			"byteOffset":892220
		},
		{
			"buffer":0,
			"byteLength":24,
			"byteOffset":892428
		},
		{
			"buffer":0,
			"byteLength":24,
			"byteOffset":892452
		},
		{
			"buffer":0,
			"byteLength":208,
			"byteOffset":892476
		},
		{
			"buffer":0,
			"byteLength":24,
			"byteOffset":892684
		},
		{
			"buffer":0,
			"byteLength":24,
			"byteOffset":892708
		},
		{
			"buffer":0,
			"byteLength":208,
			"byteOffset":892732
		},
		{
			"buffer":0,
			"byteLength":24,
			"byteOffset":892940
		},
		{
			"buffer":0,
			"byteLength":24,
			"byteOffset":892964
		},
		{
			"buffer":0,
			"byteLength":208,
			"byteOffset":892988
		},
		{
			"buffer":0,
			"byteLength":24,
			"byteOffset":893196
		},
		{
			"buffer":0,
			"byteLength":24,
			"byteOffset":893220
		},
		{
			"buffer":0,
			"byteLength":208,
			"byteOffset":893244
		},
		{
			"buffer":0,
			"byteLength":24,
			"byteOffset":893452
		},
		{
			"buffer":0,
			"byteLength":24,
			"byteOffset":893476
		},
		{
			"buffer":0,
			"byteLength":32,
			"byteOffset":893500
		},
		{
			"buffer":0,
			"byteLength":24,
			"byteOffset":893532
		}
	],
	"buffers":[
		{
			"byteLength":893556,
			"uri":"cat_run.bin"
		}
	]
}
