{
	"asset":{
		"generator":"Khronos glTF Blender I/O v4.1.62",
		"version":"2.0"
	},
	"extensionsUsed":[
		"KHR_materials_specular"
	],
	"scene":0,
	"scenes":[
		{
			"name":"Scene",
			"nodes":[
				43
			]
		}
	],
	"nodes":[
		{
			"name":"leg_front_left_toe_end",
			"rotation":[
				-3.278254325778107e-07,
				-1.868852166353463e-07,
				-2.7815508474304806e-07,
				1
			],
			"translation":[
				3.985633156844415e-08,
				3.0000085830688477,
				1.692477553660865e-06
			]
		},
		{
			"children":[
				0
			],
			"name":"leg_front_left_toe",
			"rotation":[
				-0.3788721263408661,
				-0.6356992125511169,
				-0.6356991529464722,
				0.2196110337972641
			],
			"scale":[
				1,
				0.9999997615814209,
				1.0000001192092896
			],
			"translation":[
				0,
				5.413908004760742,
				1.1920928955078125e-06
			]
		},
		{
			"children":[
				1
			],
			"name":"leg_front_left_ankle",
			"rotation":[
				0.28606098890304565,
				0.8821062445640564,
				0.37296298146247864,
				0.03092479705810547
			],
			"scale":[
				1,
				0.9999999403953552,
				0.9999998807907104
			],
			"translation":[
				1.6689300537109375e-06,
				7.604171276092529,
				7.152557373046875e-07
			]
		},
		{
			"children":[
				2
			],
			"name":"leg_front_left_bot0",
			"rotation":[
				0.19675563275814056,
				-0.07179022580385208,
				-0.11001255363225937,
				0.9716123938560486
			],
			"scale":[
				1,
				1,
				1.0000001192092896
			],
			"translation":[
				5.960464477539062e-07,
				8.318771362304688,
				1.7881393432617188e-07
			]
		},
		{
			"children":[
				3
			],
			"name":"leg_front_left_top1",
			"rotation":[
				-0.24538427591323853,
				-0.6933836936950684,
				-0.5316531658172607,
				0.4199410676956177
			],
			"scale":[
				1,
				0.9999998807907104,
				1
			],
			"translation":[
				-1.0766088962554932e-06,
				5.230695724487305,
				-5.066394805908203e-07
			]
		},
		{
			"children":[
				4
			],
			"name":"leg_front_left_top0",
			"rotation":[
				0.4114764332771301,
				0.42995575070381165,
				0.6674965620040894,
				0.4475193917751312
			],
			"scale":[
				1.000000238418579,
				1.000000238418579,
				1.0000001192092896
			],
			"translation":[
				-1.8457880020141602,
				7.942929267883301,
				9.017545700073242
			]
		},
		{
			"name":"head0_end",
			"rotation":[
				2.589076473213936e-07,
				-4.656612428988183e-09,
				-3.91155481338501e-08,
				1
			],
			"scale":[
				1,
				1.0000001192092896,
				1.0000001192092896
			],
			"translation":[
				-1.4901161193847656e-07,
				4.430950164794922,
				-1.7844140529632568e-06
			]
		},
		{
			"children":[
				6
			],
			"name":"head0",
			"rotation":[
				0.8366398215293884,
				-0.09488522261381149,
				-0.2638222277164459,
				0.47056183218955994
			],
			"translation":[
				2.980232238769531e-07,
				7.488929271697998,
				4.470348358154297e-08
			]
		},
		{
			"children":[
				7
			],
			"name":"neck1",
			"rotation":[
				-0.2013198435306549,
				0.03660384565591812,
				-0.02966931462287903,
				0.9783916473388672
			],
			"scale":[
				1,
				1.000000238418579,
				1
			],
			"translation":[
				-2.8908252716064453e-06,
				7.371091842651367,
				-3.380700945854187e-06
			]
		},
		{
			"children":[
				8
			],
			"name":"neck0",
			"rotation":[
				-0.46569010615348816,
				0.1007193848490715,
				0.18887849152088165,
				0.8586694598197937
			],
			"scale":[
				1,
				1.0000001192092896,
				1.000000238418579
			],
			"translation":[
				4.470348358154297e-08,
				10.955580711364746,
				-9.015202522277832e-07
			]
		},
		{
			"name":"leg_front_right_toe_end",
			"rotation":[
				6.109478363214293e-07,
				-1.080335536585153e-07,
				-1.3411042232291948e-07,
				1
			],
			"translation":[
				-1.1063593774451874e-07,
				3.000002145767212,
				2.801804384944262e-06
			]
		},
		{
			"children":[
				10
			],
			"name":"leg_front_right_toe",
			"rotation":[
				-0.43170398473739624,
				-0.18360087275505066,
				-0.1836012452840805,
				0.8638362288475037
			],
			"scale":[
				1.0000001192092896,
				0.9999999403953552,
				0.9999999403953552
			],
			"translation":[
				-9.5367431640625e-07,
				4.791332244873047,
				-4.76837158203125e-07
			]
		},
		{
			"children":[
				11
			],
			"name":"leg_front_right_ankle",
			"rotation":[
				-0.20046347379684448,
				0.6914114952087402,
				0.1738051325082779,
				0.6719794273376465
			],
			"scale":[
				0.9999998807907104,
				0.9999998807907104,
				0.9999999403953552
			],
			"translation":[
				0,
				5.7553019523620605,
				4.76837158203125e-07
			]
		},
		{
			"children":[
				12
			],
			"name":"leg_front_right_bot0",
			"rotation":[
				-0.10730662196874619,
				0.37298816442489624,
				0.09326118975877762,
				0.9168792366981506
			],
			"scale":[
				1,
				1.0000001192092896,
				1
			],
			"translation":[
				-5.960464477539062e-07,
				6.35833740234375,
				2.384185791015625e-07
			]
		},
		{
			"children":[
				13
			],
			"name":"leg_front_right_top1",
			"rotation":[
				0.0030095672700554132,
				0.036385226994752884,
				-0.008721438236534595,
				0.9992952346801758
			],
			"scale":[
				1,
				1,
				0.9999999403953552
			],
			"translation":[
				-2.2649765014648438e-06,
				7.192052841186523,
				7.152557373046875e-07
			]
		},
		{
			"children":[
				14
			],
			"name":"leg_front_right_top0",
			"rotation":[
				0.5224465131759644,
				-0.41387173533439636,
				-0.6956600546836853,
				0.26798683404922485
			],
			"scale":[
				1,
				0.9999999403953552,
				0.9999999403953552
			],
			"translation":[
				4.054780960083008,
				4.633721351623535,
				11.9202880859375
			]
		},
		{
			"children":[
				5,
				9,
				15
			],
			"name":"body_top1",
			"rotation":[
				0.37940335273742676,
				0.031626783311367035,
				0.028903914615511894,
				0.9242388010025024
			],
			"translation":[
				1.2665987014770508e-07,
				5.904542446136475,
				-8.195638656616211e-08
			]
		},
		{
			"children":[
				16
			],
			"name":"body_top0",
			"rotation":[
				-0.1880897581577301,
				-0.037430524826049805,
				-0.14410102367401123,
				0.9708017706871033
			],
			"scale":[
				0.9999998807907104,
				0.9999998211860657,
				0.9999998211860657
			],
			"translation":[
				-2.1445820331573486,
				12.195568084716797,
				6.571329116821289
			]
		},
		{
			"name":"tail6_end",
			"rotation":[
				3.4924596548080444e-08,
				4.6193599700927734e-07,
				-3.3527612686157227e-07,
				1
			],
			"translation":[
				-7.152557373046875e-07,
				1.9987549781799316,
				1.5497207641601562e-06
			]
		},
		{
			"children":[
				18
			],
			"name":"tail6",
			"rotation":[
				-0.5636841058731079,
				0.10931159555912018,
				0.025865543633699417,
				0.8183166980743408
			],
			"scale":[
				0.9999999403953552,
				0.9999998807907104,
				0.9999999403953552
			],
			"translation":[
				2.1457672119140625e-06,
				5.350503444671631,
				-1.3113021850585938e-06
			]
		},
		{
			"children":[
				19
			],
			"name":"tail5",
			"rotation":[
				-0.7169004678726196,
				-0.017485136166214943,
				0.3534749746322632,
				0.6006691455841064
			],
			"scale":[
				0.9999999403953552,
				0.9999998211860657,
				0.9999998807907104
			],
			"translation":[
				-1.9073486328125e-06,
				12.032732963562012,
				-8.940696716308594e-06
			]
		},
		{
			"children":[
				20
			],
			"name":"tail4",
			"rotation":[
				-0.2486771047115326,
				-0.0826333612203598,
				-0.0646967738866806,
				0.9628840684890747
			],
			"scale":[
				1,
				0.9999998807907104,
				1
			],
			"translation":[
				-1.7881393432617188e-07,
				5.214559078216553,
				-1.341104507446289e-06
			]
		},
		{
			"children":[
				21
			],
			"name":"tail3",
			"rotation":[
				0.2843336760997772,
				0.02988211065530777,
				-0.011629216372966766,
				0.9581890106201172
			],
			"scale":[
				1,
				1,
				1.0000001192092896
			],
			"translation":[
				4.76837158203125e-07,
				5.235787868499756,
				-5.125999450683594e-06
			]
		},
		{
			"children":[
				22
			],
			"name":"tail2",
			"rotation":[
				0.2179296612739563,
				-0.00603947788476944,
				-0.08710329234600067,
				0.9720510244369507
			],
			"translation":[
				-4.470348358154297e-08,
				5.943598747253418,
				-4.898756742477417e-07
			]
		},
		{
			"children":[
				23
			],
			"name":"tail1",
			"rotation":[
				0.42998313903808594,
				-0.007079173345118761,
				-0.13579854369163513,
				0.8925374746322632
			],
			"translation":[
				2.384185791015625e-07,
				9.42012882232666,
				1.4863908290863037e-06
			]
		},
		{
			"children":[
				24
			],
			"name":"tail0",
			"rotation":[
				0.11716824769973755,
				-0.08638867735862732,
				0.22277304530143738,
				0.9639402627944946
			],
			"scale":[
				0.9999998807907104,
				0.9999999403953552,
				0.9999999403953552
			],
			"translation":[
				3.5762786865234375e-07,
				11.793042182922363,
				1.9371509552001953e-07
			]
		},
		{
			"children":[
				25
			],
			"name":"pelvis",
			"rotation":[
				0.5971468687057495,
				-0.03783789649605751,
				0.2659696340560913,
				0.7558069229125977
			],
			"scale":[
				1,
				1.0000001192092896,
				1
			],
			"translation":[
				-4.016048908233643,
				4.802724361419678,
				-4.10393762588501
			]
		},
		{
			"name":"leg_hind_left_toe_end",
			"rotation":[
				3.4769428225445154e-08,
				-1.0865778499180578e-08,
				-6.208898284398856e-09,
				1
			],
			"scale":[
				1,
				0.9999999403953552,
				1
			],
			"translation":[
				1.264846218873572e-07,
				2.9999992847442627,
				1.925723381646094e-06
			]
		},
		{
			"children":[
				27
			],
			"name":"leg_hind_left_toe",
			"rotation":[
				-0.29763489961624146,
				-0.0610770545899868,
				-0.06107703596353531,
				0.9507642388343811
			],
			"scale":[
				1.0000001192092896,
				1.0000001192092896,
				1.0000001192092896
			],
			"translation":[
				-5.960464477539063e-08,
				5.905628681182861,
				1.1354684829711914e-05
			]
		},
		{
			"children":[
				28
			],
			"name":"leg_hind_left_ankle",
			"rotation":[
				0.008020514622330666,
				0.033849120140075684,
				0.018493829295039177,
				0.9992236495018005
			],
			"scale":[
				1,
				1,
				0.9999998807907104
			],
			"translation":[
				-1.7881393432617188e-06,
				6.629769802093506,
				-7.465481758117676e-06
			]
		},
		{
			"children":[
				29
			],
			"name":"leg_hind_left_bot0",
			"rotation":[
				-0.7117367386817932,
				-0.06165512651205063,
				-0.07156654447317123,
				0.6960659623146057
			],
			"translation":[
				-3.5762786865234375e-07,
				7.408668518066406,
				-8.940696716308594e-08
			]
		},
		{
			"children":[
				30
			],
			"name":"leg_hind_left_top1",
			"rotation":[
				-0.16239085793495178,
				0.19196198880672455,
				-0.08247198909521103,
				0.9643537998199463
			],
			"scale":[
				0.9999998211860657,
				0.9999998807907104,
				0.9999998807907104
			],
			"translation":[
				-1.1920928955078125e-07,
				5.070694923400879,
				1.2814998626708984e-06
			]
		},
		{
			"children":[
				31
			],
			"name":"leg_hind_left_top0",
			"rotation":[
				0.034751106053590775,
				-0.3877122700214386,
				0.19619767367839813,
				0.8999877572059631
			],
			"scale":[
				1.0000001192092896,
				1.000000238418579,
				1.000000238418579
			],
			"translation":[
				-0.7589131593704224,
				5.313364505767822,
				-8.584827423095703
			]
		},
		{
			"name":"leg_hind_right_toe_end",
			"rotation":[
				9.437399626222032e-07,
				1.0803445604778972e-07,
				7.823152259334165e-08,
				1
			],
			"translation":[
				1.417165549355559e-07,
				2.999995708465576,
				-1.2646567029150901e-06
			]
		},
		{
			"children":[
				33
			],
			"name":"leg_hind_right_toe",
			"rotation":[
				-0.9563620686531067,
				-0.046333037316799164,
				-0.04633300378918648,
				0.28474220633506775
			],
			"scale":[
				1.0000001192092896,
				1,
				1.0000003576278687
			],
			"translation":[
				2.384185791015625e-07,
				5.697714805603027,
				-4.76837158203125e-07
			]
		},
		{
			"children":[
				34
			],
			"name":"leg_hind_right_ankle",
			"rotation":[
				0.1751951277256012,
				0.0699847936630249,
				-0.024791257455945015,
				0.9817302227020264
			],
			"scale":[
				1.0000001192092896,
				1,
				0.9999999403953552
			],
			"translation":[
				6.854534149169922e-07,
				5.466716289520264,
				-5.21540641784668e-08
			]
		},
		{
			"children":[
				35
			],
			"name":"leg_hind_right_bot0",
			"rotation":[
				-0.23560753464698792,
				0.033287107944488525,
				-0.008813594467937946,
				0.9712380766868591
			],
			"scale":[
				1,
				0.9999998807907104,
				1
			],
			"translation":[
				-5.960464477539063e-08,
				4.361151218414307,
				-2.592802047729492e-06
			]
		},
		{
			"children":[
				36
			],
			"name":"leg_hind_right_top1",
			"rotation":[
				-0.036768365651369095,
				-7.588858716189861e-05,
				0.0019114147871732712,
				0.9993219971656799
			],
			"scale":[
				1,
				0.9999999403953552,
				0.9999999403953552
			],
			"translation":[
				-1.1920928955078125e-07,
				9.95068645477295,
				2.980232238769531e-07
			]
		},
		{
			"children":[
				37
			],
			"name":"leg_hind_right_top0",
			"rotation":[
				0.14536049962043762,
				-0.32706597447395325,
				0.21374788880348206,
				0.9089609384536743
			],
			"scale":[
				0.9999999403953552,
				1,
				1.0000001192092896
			],
			"translation":[
				1.9073486328125e-06,
				13.52905559539795,
				-3.337860107421875e-06
			]
		},
		{
			"children":[
				26,
				32,
				38
			],
			"name":"body_bot",
			"rotation":[
				-0.9297278523445129,
				-0.054261352866888046,
				-0.36104723811149597,
				0.04802932217717171
			],
			"scale":[
				0.9999994039535522,
				0.9999998807907104,
				0.9999997615814209
			],
			"translation":[
				-2.592743158340454,
				6.297189235687256,
				0.4792230725288391
			]
		},
		{
			"children":[
				17,
				39
			],
			"name":"body",
			"rotation":[
				0.3477420508861542,
				4.1076356183111784e-07,
				0.08052494376897812,
				0.9341259598731995
			],
			"scale":[
				1,
				0.9999999403953552,
				0.9999999403953552
			],
			"translation":[
				5.786406993865967,
				22.36739730834961,
				-7.783721446990967
			]
		},
		{
			"children":[
				40
			],
			"name":"root",
			"rotation":[
				-0.7071031928062439,
				0,
				0,
				0.7071103453636169
			],
			"translation":[
				0.2932271957397461,
				-0.0847320631146431,
				32.963706970214844
			]
		},
		{
			"mesh":0,
			"name":"cat",
			"skin":0
		},
		{
			"children":[
				42,
				41
			],
			"name":"rig",
			"rotation":[
				0.7071068286895752,
				0,
				0,
				0.7071068286895752
			]
		}
	],
	"materials":[
		{
			"doubleSided":true,
			"extensions":{
				"KHR_materials_specular":{
					"specularColorFactor":[
						2.0,
						2.0,
						2.0
					]
				}
			},
			"name":"Material.002",
			"pbrMetallicRoughness":{
				"metallicFactor":0,
				"roughnessFactor":0.6951627731323242
			}
		}
	],
	"meshes":[
		{
			"name":"cat",
			"primitives":[
				{
					"attributes":{
						"POSITION":0,
						"NORMAL":1,
						"TEXCOORD_0":2,
						"JOINTS_0":3,
						"WEIGHTS_0":4
					},
					"indices":5,
					"material":0
				}
			]
		}
	],
	"skins":[
		{
			"inverseBindMatrices":6,
			"joints":[
				41,
				40,
				17,
				16,
				5,
				4,
				3,
				2,
				1,
				0,
				9,
				8,
				7,
				6,
				15,
				14,
				13,
				12,
				11,
				10,
				39,
				26,
				25,
				24,
				23,
				22,
				21,
				20,
				19,
				18,
				32,
				31,
				30,
				29,
				28,
				27,
				38,
				37,
				36,
				35,
				34,
				33
			],
			"name":"rig"
		}
	],
	"accessors":[
		{
			"bufferView":0,
			"componentType":5126,
			"count":14683,
			"max":[
				12.114110946655273,
				32.96371078491211,
				35.61893844604492
			],
			"min":[
				-11.527656555175781,
				-32.96370315551758,
				-35.788387298583984
			],
			"type":"VEC3"
		},
		{
			"bufferView":1,
			"componentType":5126,
			"count":14683,
			"type":"VEC3"
		},
		{
			"bufferView":2,
			"componentType":5126,
			"count":14683,
			"type":"VEC2"
		},
		{
			"bufferView":3,
			"componentType":5121,
			"count":14683,
			"type":"VEC4"
		},
		{
			"bufferView":4,
			"componentType":5126,
			"count":14683,
			"type":"VEC4"
		},
		{
			"bufferView":5,
			"componentType":5123,
			"count":59277,
			"type":"SCALAR"
		},
		{
			"bufferView":6,
			"componentType":5126,
			"count":42,
			"type":"MAT4"
		}
	],
	"bufferViews":[
		{
			"buffer":0,
			"byteLength":176196,
			"byteOffset":0,
			"target":34962
		},
		{
			"buffer":0,
			"byteLength":176196,
			"byteOffset":176196,
			"target":34962
		},
		{
			"buffer":0,
			"byteLength":117464,
			"byteOffset":352392,
			"target":34962
		},
		{
			"buffer":0,
			"byteLength":58732,
			"byteOffset":469856,
			"target":34962
		},
		{
			"buffer":0,
			"byteLength":234928,
			"byteOffset":528588,
			"target":34962
		},
		{
			"buffer":0,
			"byteLength":118554,
			"byteOffset":763516,
			"target":34963
		},
		{
			"buffer":0,
			"byteLength":2688,
			"byteOffset":882072
		}
	],
	"buffers":[
		{
			"byteLength":884760,
			"uri":"cat.bin"
		}
	]
}
